<svg xmlns="http://www.w3.org/2000/svg" viewBox="0 0 1000 1000" width="1000" height="1000">
  <title>InfraSure</title>
  <defs>
    <clipPath id="amber-clip" clipPathUnits="userSpaceOnUse"><path d="M 0,150 H 600 V 0 H 0 Z" transform="translate(-105.90711,-102.0432)"/></clipPath>
    <clipPath id="green-clip" clipPathUnits="userSpaceOnUse"><path d="M 0,150 H 600 V 0 H 0 Z" transform="translate(-100.23141,-107.1268)"/></clipPath>
    <clipPath id="slate-clip" clipPathUnits="userSpaceOnUse"><path d="M 0,150 H 600 V 0 H 0 Z" transform="translate(-60.836201,-70.432104)"/></clipPath>
  </defs>
  <g transform="matrix(5.950019664814993,0,0,5.950019664814993,150,168.90124896862784)">
    <g transform="translate(-38.048137,-50.106399)">
      <path d="m 0,0 c 5.391,-7.161 8.61,-16.155 8.61,-25.933 0,-23.343 -18.301,-42.267 -40.877,-42.267 -22.576,0 -40.878,18.924 -40.878,42.267 0,15.436 8.006,28.933 19.954,36.31 -14.344,-7.282 -24.18,-22.163 -24.18,-39.352 0,-24.365 19.752,-44.118 44.117,-44.118 24.366,0 44.118,19.753 44.118,44.118 C 10.864,-17.881 6.76,-7.752 0,0" fill="#fcb949" transform="matrix(1.3333333,0,0,-1.3333333,141.20947,63.9424)" clip-path="url(#amber-clip)"/>
      <path d="m 0,0 -5.914,-22.67 h 11.47 l -24.821,-32.706 10.394,24.731 h -10.394 z" fill="#00b176" transform="matrix(1.3333333,0,0,-1.3333333,133.64187,57.164267)" clip-path="url(#green-clip)"/>
      <path d="M 0,0 V 4.723 L 11.649,0 Z m 11.774,-2.355 c 0.271,0 0.49,-0.219 0.49,-0.49 0,-0.271 -0.219,-0.491 -0.49,-0.491 H 7.849 c -0.271,0 -0.491,0.22 -0.491,0.491 0,0.271 0.22,0.49 0.491,0.49 z m 0,-1.962 c 0.271,0 0.49,-0.22 0.49,-0.491 0,-0.271 -0.219,-0.49 -0.49,-0.49 H 7.849 c -0.271,0 -0.491,0.219 -0.491,0.49 0,0.271 0.22,0.491 0.491,0.491 z m -11.408,-15.176 -4.343,3.916 3.187,2.873 z m 1.562,-9.18 -5.878,4.77 4.452,3.612 z m -10.377,8.42 h 8.067 l -4.033,-3.273 z m 4.034,4.281 4.097,-3.694 h -8.195 z m -3.626,3.268 3.187,-2.873 -4.342,-3.916 z M -20.479,0 -8.831,4.623 V 0 Z m 3.799,-2.355 c 0.271,0 0.49,-0.219 0.49,-0.49 0,-0.271 -0.219,-0.491 -0.49,-0.491 h -3.925 c -0.271,0 -0.49,0.22 -0.49,0.491 0,0.271 0.219,0.49 0.49,0.49 z m 0,-1.962 c 0.271,0 0.49,-0.22 0.49,-0.491 0,-0.271 -0.219,-0.49 -0.49,-0.49 h -3.925 c -0.271,0 -0.49,0.219 -0.49,0.49 0,0.271 0.219,0.491 0.49,0.491 z m -3.799,17.072 11.648,4.704 V 12.755 Z M -16.68,10.4 c 0.271,0 0.49,-0.219 0.49,-0.49 0,-0.271 -0.219,-0.491 -0.49,-0.491 h -3.925 c -0.271,0 -0.49,0.22 -0.49,0.491 0,0.271 0.219,0.49 0.49,0.49 z m 0,-1.962 c 0.271,0 0.49,-0.22 0.49,-0.49 0,-0.271 -0.219,-0.491 -0.49,-0.491 h -3.925 c -0.271,0 -0.49,0.22 -0.49,0.491 0,0.27 0.219,0.49 0.49,0.49 z m 9.558,-15.743 2.259,-1.96 -3.042,-2.641 z m 0.058,5.693 2.251,-2.46 -2.251,-2.46 z m 0,6.734 2.243,-2.349 -2.243,-2.348 z m 0,6.011 2.258,-2.571 -2.258,-2.571 z m 0,6.506 2.234,-2.235 -2.234,-2.234 z m 2.649,5.811 2.505,-5.103 h -5.01 z m 2.649,-10.28 v 0 L -4,15.404 l 2.234,2.234 z m 0.154,-25.825 -2.803,-2.527 -2.804,2.527 z m -0.022,0.587 h -5.563 l 2.782,2.414 z m -0.918,4.808 -1.863,-1.617 -1.864,1.617 z m 0.12,0.587 h -3.967 l 1.984,2.167 z m 0.666,5.061 v -4.92 l -2.252,2.46 z m -0.398,0.435 -2.251,-2.46 -2.252,2.46 z M -2.172,0 h -4.487 l 2.244,2.349 z M -2.452,5.253 -4.415,3.198 -6.378,5.253 Z M -1.766,5.122 V 0.425 L -4.01,2.773 Z M -2.415,5.84 h -4.001 l 2.001,2.277 z m 0.649,5.293 V 5.991 l -2.259,2.571 z m -0.391,0.445 -2.258,-2.571 -2.259,2.571 z m -4.199,6.182 h 3.882 l -1.941,-1.941 z m 3.882,-4.712 h -3.882 l 1.941,1.941 z m 1.549,-24.954 -3.043,2.641 2.259,1.96 z M 0,17.36 11.649,12.755 H 0 Z M 11.774,10.4 c 0.271,0 0.49,-0.219 0.49,-0.49 0,-0.271 -0.219,-0.491 -0.49,-0.491 H 7.849 c -0.271,0 -0.491,0.22 -0.491,0.491 0,0.271 0.22,0.49 0.491,0.49 z m 0,-1.962 c 0.271,0 0.49,-0.22 0.49,-0.49 0,-0.271 -0.219,-0.491 -0.49,-0.491 H 7.849 c -0.271,0 -0.491,0.22 -0.491,0.491 0,0.27 0.22,0.49 0.491,0.49 z M 13.521,0.518 0,5.994 v 5.584 H 8.34 V 10.694 H 7.849 c -0.432,0 -0.784,-0.352 -0.784,-0.784 0,-0.432 0.351,-0.784 0.784,-0.784 H 8.34 V 8.731 H 7.849 C 7.417,8.731 7.065,8.38 7.065,7.947 7.065,7.515 7.416,7.163 7.849,7.163 H 8.34 V 6.77 c 0,-0.434 0.351,-0.785 0.784,-0.785 h 1.374 c 0.433,0 0.785,0.351 0.785,0.785 v 0.393 h 0.49 c 0.433,0 0.784,0.352 0.784,0.784 0,0.433 -0.351,0.784 -0.784,0.784 h -0.49 v 0.395 h 0.49 c 0.433,0 0.784,0.351 0.784,0.784 0,0.432 -0.351,0.784 -0.784,0.784 h -0.49 v 0.884 h 1.892 c 0.425,0 0.781,0.29 0.866,0.706 0.084,0.416 -0.129,0.823 -0.52,0.989 l -13.878,5.493 -4.058,8.118 -3.992,-7.984 -13.934,-5.622 -0.011,-0.005 c -0.391,-0.166 -0.604,-0.573 -0.52,-0.989 0.085,-0.416 0.441,-0.706 0.865,-0.706 h 1.893 v -0.884 h -0.491 c -0.432,0 -0.784,-0.352 -0.784,-0.784 0,-0.432 0.352,-0.784 0.784,-0.784 h 0.491 V 8.731 h -0.491 c -0.432,0 -0.784,-0.351 -0.784,-0.784 0,-0.432 0.352,-0.784 0.784,-0.784 h 0.491 V 6.77 c 0,-0.434 0.351,-0.785 0.785,-0.785 h 1.373 c 0.434,0 0.785,0.351 0.785,0.785 v 0.393 h 0.491 c 0.432,0 0.784,0.352 0.784,0.784 0,0.433 -0.352,0.784 -0.784,0.784 h -0.491 v 0.395 h 0.491 c 0.432,0 0.784,0.351 0.784,0.784 0,0.432 -0.352,0.784 -0.784,0.784 h -0.491 v 0.884 h 8.34 V 5.89 l -13.51,-5.367 -0.011,-0.005 c -0.391,-0.166 -0.605,-0.573 -0.52,-0.989 0.085,-0.416 0.441,-0.707 0.865,-0.707 h 1.893 v -0.884 h -0.491 c -0.432,0 -0.784,-0.351 -0.784,-0.784 0,-0.432 0.352,-0.783 0.784,-0.783 h 0.491 v -0.395 h -0.491 c -0.432,0 -0.784,-0.351 -0.784,-0.784 0,-0.432 0.352,-0.784 0.784,-0.784 h 0.491 v -0.393 c 0,-0.434 0.351,-0.785 0.785,-0.785 h 1.373 c 0.434,0 0.785,0.351 0.785,0.785 v 0.393 h 0.491 c 0.432,0 0.784,0.352 0.784,0.784 0,0.432 -0.352,0.784 -0.784,0.784 h -0.491 v 0.395 h 0.491 c 0.432,0 0.784,0.351 0.784,0.783 0,0.433 -0.352,0.784 -0.784,0.784 h -0.491 v 0.884 h 8.34 v -5.789 l -3.24,-19.03 c 0.506,-0.443 1.021,-0.873 1.548,-1.291 l 1.191,6.997 4.451,-3.612 -4.895,-3.972 c 0.161,-0.122 0.322,-0.243 0.484,-0.363 l 4.877,3.957 6.233,-5.058 c 0.055,-0.044 0.12,-0.066 0.185,-0.066 0.017,0 0.032,0.008 0.048,0.011 l 0.757,-5.053 c 0.583,-0.189 1.172,-0.362 1.765,-0.526 L 0,-6.966 v 5.789 H 8.34 V -2.061 H 7.849 c -0.432,0 -0.784,-0.352 -0.784,-0.784 0,-0.433 0.351,-0.784 0.784,-0.784 H 8.34 V -4.024 H 7.849 c -0.432,0 -0.784,-0.351 -0.784,-0.784 0,-0.432 0.351,-0.784 0.784,-0.784 H 8.34 v -0.393 c 0,-0.434 0.351,-0.785 0.784,-0.785 h 1.374 c 0.433,0 0.785,0.352 0.785,0.785 v 0.393 h 0.49 c 0.433,0 0.784,0.352 0.784,0.784 0,0.433 -0.351,0.784 -0.784,0.784 h -0.49 v 0.395 h 0.49 c 0.433,0 0.784,0.351 0.784,0.784 0,0.432 -0.351,0.784 -0.784,0.784 h -0.49 v 0.884 h 1.892 c 0.425,0 0.781,0.29 0.866,0.706 0.085,0.416 -0.129,0.823 -0.52,0.989" fill="#3e4e59" transform="matrix(1.3333333,0,0,-1.3333333,81.114933,106.09053)" clip-path="url(#slate-clip)"/>
    </g>
  </g>
</svg>
