<?xml version="1.0" encoding="UTF-8" standalone="no"?>
<svg version="1.1" width="800" height="200" viewBox="0 0 800 200" xmlns="http://www.w3.org/2000/svg">
  <title>InfraSure</title>
  <defs>
    <clipPath clipPathUnits="userSpaceOnUse" id="clipPath2"><path d="M 0,150 H 600 V 0 H 0 Z" transform="translate(-105.90711,-102.0432)"/></clipPath>
    <clipPath clipPathUnits="userSpaceOnUse" id="clipPath4"><path d="M 0,150 H 600 V 0 H 0 Z"/></clipPath>
    <clipPath clipPathUnits="userSpaceOnUse" id="clipPath6"><path d="M 0,150 H 600 V 0 H 0 Z" transform="translate(-183.5463,-89.462202)"/></clipPath>
    <clipPath clipPathUnits="userSpaceOnUse" id="clipPath8"><path d="M 0,150 H 600 V 0 H 0 Z" transform="translate(-241.74481,-104.7668)"/></clipPath>
    <clipPath clipPathUnits="userSpaceOnUse" id="clipPath10"><path d="M 0,150 H 600 V 0 H 0 Z" transform="translate(-248.97741,-38.289803)"/></clipPath>
    <clipPath clipPathUnits="userSpaceOnUse" id="clipPath12"><path d="M 0,150 H 600 V 0 H 0 Z" transform="translate(-327.31111,-63.876204)"/></clipPath>
    <clipPath clipPathUnits="userSpaceOnUse" id="clipPath14"><path d="M 0,150 H 600 V 0 H 0 Z" transform="translate(-365.10271,-104.7668)"/></clipPath>
    <clipPath clipPathUnits="userSpaceOnUse" id="clipPath16"><path d="M 0,150 H 600 V 0 H 0 Z" transform="translate(-461.60541,-38.289803)"/></clipPath>
    <clipPath clipPathUnits="userSpaceOnUse" id="clipPath18"><path d="M 0,150 H 600 V 0 H 0 Z" transform="translate(-468.23851,-38.289803)"/></clipPath>
    <clipPath clipPathUnits="userSpaceOnUse" id="clipPath20"><path d="M 0,150 H 600 V 0 H 0 Z" transform="translate(-529.66111,-79.180902)"/></clipPath>
    <clipPath clipPathUnits="userSpaceOnUse" id="clipPath22"><path d="M 0,150 H 600 V 0 H 0 Z" transform="translate(-100.23141,-107.1268)"/></clipPath>
    <clipPath clipPathUnits="userSpaceOnUse" id="clipPath24"><path d="M 0,150 H 600 V 0 H 0 Z" transform="translate(-60.836201,-70.432104)"/></clipPath>
  </defs>
  <g>
    <path d="m 0,0 c 5.391,-7.161 8.61,-16.155 8.61,-25.933 0,-23.343 -18.301,-42.267 -40.877,-42.267 -22.576,0 -40.878,18.924 -40.878,42.267 0,15.436 8.006,28.933 19.954,36.31 -14.344,-7.282 -24.18,-22.163 -24.18,-39.352 0,-24.365 19.752,-44.118 44.117,-44.118 24.366,0 44.118,19.753 44.118,44.118 C 10.864,-17.881 6.76,-7.752 0,0" style="fill:#fcb949;fill-rule:nonzero" transform="matrix(1.3333333,0,0,-1.3333333,141.20947,63.9424)" clip-path="url(#clipPath2)"/>
    <path d="m 142.103,115.049 h 10.203 V 38.29 h -10.203 z" style="fill:#3e4e59;fill-rule:nonzero" transform="matrix(1.3333333,0,0,-1.3333333,0,200)" clip-path="url(#clipPath4)"/>
    <path d="m 0,0 c 7.063,0 13.079,-2.511 18.051,-7.534 5.023,-4.971 7.534,-10.989 7.534,-18.052 V -51.172 H 15.304 v 25.586 c 0,4.238 -1.492,7.849 -4.474,10.831 -2.982,2.983 -6.592,4.474 -10.83,4.474 -4.239,0 -7.849,-1.491 -10.831,-4.474 -3.036,-2.982 -4.552,-6.593 -4.552,-10.831 v -25.586 h -10.203 v 25.586 c 0,7.063 2.484,13.081 7.456,18.052 C -13.107,-2.511 -7.064,0 0,0" style="fill:#3e4e59;fill-rule:nonzero" transform="matrix(1.3333333,0,0,-1.3333333,244.7284,80.717067)" clip-path="url(#clipPath6)"/>
    <path d="m 0,0 c -4.239,0 -7.849,-1.491 -10.831,-4.474 -3.036,-2.982 -4.552,-6.592 -4.552,-10.831 H 5.101 v -10.281 h -20.484 v -40.891 h -10.203 v 51.172 c 0,7.064 2.484,13.081 7.456,18.052 5.023,5.023 11.066,7.535 18.13,7.535 H 10.202 V 0 Z" style="fill:#3e4e59;fill-rule:nonzero" transform="matrix(1.3333333,0,0,-1.3333333,322.3264,60.310933)" clip-path="url(#clipPath8)"/>
    <path d="m 0,0 v 25.586 c 0,7.064 2.484,13.081 7.456,18.052 5.023,5.023 11.066,7.534 18.13,7.534 H 35.789 V 40.891 H 25.586 C 21.348,40.891 17.738,39.4 14.755,36.417 11.72,33.435 10.203,29.824 10.203,25.586 V 0 Z" style="fill:#3e4e59;fill-rule:nonzero" transform="matrix(1.3333333,0,0,-1.3333333,331.96987,148.94693)" clip-path="url(#clipPath10)"/>
    <path d="m 0,0 c 0,4.238 -1.491,7.849 -4.474,10.831 -2.982,2.982 -6.592,4.474 -10.83,4.474 -4.238,0 -7.848,-1.492 -10.831,-4.474 C -29.17,7.849 -30.687,4.238 -30.687,0 c 0,-4.238 1.517,-7.849 4.552,-10.831 2.983,-3.035 6.593,-4.551 10.831,-4.551 H 0 Z m -15.304,25.586 c 7.064,0 13.08,-2.512 18.051,-7.534 C 7.77,13.08 10.282,7.063 10.282,0 v -25.586 h -25.586 c -7.064,0 -13.107,2.485 -18.13,7.456 -4.972,5.023 -7.456,11.067 -7.456,18.13 0,7.063 2.484,13.08 7.456,18.052 5.023,5.022 11.066,7.534 18.13,7.534" style="fill:#3e4e59;fill-rule:nonzero" transform="matrix(1.3333333,0,0,-1.3333333,436.4148,114.83173)" clip-path="url(#clipPath12)"/>
    <path d="m 0,0 c -2.825,0 -5.233,-0.995 -7.22,-2.982 -2.041,-1.99 -3.061,-4.396 -3.061,-7.221 0,-2.825 1.02,-5.233 3.061,-7.22 1.987,-1.99 4.395,-2.983 7.22,-2.983 h 17.816 v 0.078 c 6.384,0 11.824,-2.25 16.325,-6.749 4.5,-4.501 6.75,-9.941 6.75,-16.324 0,-6.385 -2.25,-11.827 -6.75,-16.326 -4.501,-4.501 -9.941,-6.75 -16.325,-6.75 h -38.3 v 10.204 h 38.3 c 3.558,0 6.593,1.256 9.105,3.766 2.511,2.513 3.767,5.547 3.767,9.106 0,3.557 -1.256,6.591 -3.767,9.104 -2.512,2.51 -5.547,3.767 -9.105,3.767 v -0.158 H 0 c -5.651,0 -10.491,2.014 -14.519,6.044 -3.977,3.976 -5.965,8.79 -5.965,14.441 0,5.651 1.988,10.464 5.965,14.441 4.028,4.029 8.868,6.044 14.519,6.044 H 40.891 V 0 Z" style="fill:#00b176;fill-rule:nonzero" transform="matrix(1.3333333,0,0,-1.3333333,486.8036,60.310933)" clip-path="url(#clipPath14)"/>
    <path d="m 0,0 h -25.585 c -7.065,0 -13.108,2.485 -18.131,7.456 -4.972,5.023 -7.456,11.067 -7.456,18.13 v 25.586 h 10.204 V 25.586 c 0,-4.237 1.516,-7.848 4.551,-10.831 2.983,-3.034 6.593,-4.551 10.832,-4.551 h 15.303 v 40.968 l 10.282,0 z" style="fill:#00b176;fill-rule:nonzero" transform="matrix(1.3333333,0,0,-1.3333333,615.47387,148.94693)" clip-path="url(#clipPath16)"/>
    <path d="m 0,0 v 25.586 c 0,7.064 2.484,13.081 7.456,18.052 5.023,5.023 11.066,7.534 18.13,7.534 H 35.789 V 40.891 H 25.586 C 21.348,40.891 17.738,39.4 14.755,36.417 11.72,33.435 10.203,29.824 10.203,25.586 V 0 Z" style="fill:#00b176;fill-rule:nonzero" transform="matrix(1.3333333,0,0,-1.3333333,624.318,148.94693)" clip-path="url(#clipPath18)"/>
    <path d="m 0,0 c -3.297,0 -6.279,-0.942 -8.947,-2.826 -2.618,-1.884 -4.449,-4.344 -5.495,-7.376 H 14.441 C 13.394,-7.17 11.563,-4.71 8.947,-2.826 6.278,-0.942 3.296,0 0,0 m -5.102,-20.484 h -9.34 c 1.046,-3.035 2.877,-5.468 5.495,-7.3 2.668,-1.936 5.65,-2.903 8.947,-2.903 H 25.585 V -40.891 H 0 c -7.064,0 -13.107,2.485 -18.13,7.456 -4.972,5.023 -7.456,11.067 -7.456,18.13 0,7.064 2.484,13.081 7.456,18.052 5.023,5.023 11.066,7.534 18.13,7.534 7.063,0 13.079,-2.511 18.051,-7.534 5.023,-4.971 7.534,-10.988 7.534,-18.052 v -5.102 H -5.102 Z" style="fill:#00b176;fill-rule:nonzero" transform="matrix(1.3333333,0,0,-1.3333333,706.2148,94.425467)" clip-path="url(#clipPath20)"/>
    <path d="m 0,0 -5.914,-22.67 h 11.47 l -24.821,-32.706 10.394,24.731 h -10.394 z" style="fill:#00b176;fill-rule:nonzero" transform="matrix(1.3333333,0,0,-1.3333333,133.64187,57.164267)" clip-path="url(#clipPath22)"/>
    <path d="M 0,0 V 4.723 L 11.649,0 Z m 11.774,-2.355 c 0.271,0 0.49,-0.219 0.49,-0.49 0,-0.271 -0.219,-0.491 -0.49,-0.491 H 7.849 c -0.271,0 -0.491,0.22 -0.491,0.491 0,0.271 0.22,0.49 0.491,0.49 z m 0,-1.962 c 0.271,0 0.49,-0.22 0.49,-0.491 0,-0.271 -0.219,-0.49 -0.49,-0.49 H 7.849 c -0.271,0 -0.491,0.219 -0.491,0.49 0,0.271 0.22,0.491 0.491,0.491 z m -11.408,-15.176 -4.343,3.916 3.187,2.873 z m 1.562,-9.18 -5.878,4.77 4.452,3.612 z m -10.377,8.42 h 8.067 l -4.033,-3.273 z m 4.034,4.281 4.097,-3.694 h -8.195 z m -3.626,3.268 3.187,-2.873 -4.342,-3.916 z M -20.479,0 -8.831,4.623 V 0 Z m 3.799,-2.355 c 0.271,0 0.49,-0.219 0.49,-0.49 0,-0.271 -0.219,-0.491 -0.49,-0.491 h -3.925 c -0.271,0 -0.49,0.22 -0.49,0.491 0,0.271 0.219,0.49 0.49,0.49 z m 0,-1.962 c 0.271,0 0.49,-0.22 0.49,-0.491 0,-0.271 -0.219,-0.49 -0.49,-0.49 h -3.925 c -0.271,0 -0.49,0.219 -0.49,0.49 0,0.271 0.219,0.491 0.49,0.491 z m -3.799,17.072 11.648,4.704 V 12.755 Z M -16.68,10.4 c 0.271,0 0.49,-0.219 0.49,-0.49 0,-0.271 -0.219,-0.491 -0.49,-0.491 h -3.925 c -0.271,0 -0.49,0.22 -0.49,0.491 0,0.271 0.219,0.49 0.49,0.49 z m 0,-1.962 c 0.271,0 0.49,-0.22 0.49,-0.49 0,-0.271 -0.219,-0.491 -0.49,-0.491 h -3.925 c -0.271,0 -0.49,0.22 -0.49,0.491 0,0.27 0.219,0.49 0.49,0.49 z m 9.558,-15.743 2.259,-1.96 -3.042,-2.641 z m 0.058,5.693 2.251,-2.46 -2.251,-2.46 z m 0,6.734 2.243,-2.349 -2.243,-2.348 z m 0,6.011 2.258,-2.571 -2.258,-2.571 z m 0,6.506 2.234,-2.235 -2.234,-2.234 z m 2.649,5.811 2.505,-5.103 h -5.01 z m 2.649,-10.28 v 0 L -4,15.404 l 2.234,2.234 z m 0.154,-25.825 -2.803,-2.527 -2.804,2.527 z m -0.022,0.587 h -5.563 l 2.782,2.414 z m -0.918,4.808 -1.863,-1.617 -1.864,1.617 z m 0.12,0.587 h -3.967 l 1.984,2.167 z m 0.666,5.061 v -4.92 l -2.252,2.46 z m -0.398,0.435 -2.251,-2.46 -2.252,2.46 z M -2.172,0 h -4.487 l 2.244,2.349 z M -2.452,5.253 -4.415,3.198 -6.378,5.253 Z M -1.766,5.122 V 0.425 L -4.01,2.773 Z M -2.415,5.84 h -4.001 l 2.001,2.277 z m 0.649,5.293 V 5.991 l -2.259,2.571 z m -0.391,0.445 -2.258,-2.571 -2.259,2.571 z m -4.199,6.182 h 3.882 l -1.941,-1.941 z m 3.882,-4.712 h -3.882 l 1.941,1.941 z m 1.549,-24.954 -3.043,2.641 2.259,1.96 z M 0,17.36 11.649,12.755 H 0 Z M 11.774,10.4 c 0.271,0 0.49,-0.219 0.49,-0.49 0,-0.271 -0.219,-0.491 -0.49,-0.491 H 7.849 c -0.271,0 -0.491,0.22 -0.491,0.491 0,0.271 0.22,0.49 0.491,0.49 z m 0,-1.962 c 0.271,0 0.49,-0.22 0.49,-0.49 0,-0.271 -0.219,-0.491 -0.49,-0.491 H 7.849 c -0.271,0 -0.491,0.22 -0.491,0.491 0,0.27 0.22,0.49 0.491,0.49 z M 13.521,0.518 0,5.994 v 5.584 H 8.34 V 10.694 H 7.849 c -0.432,0 -0.784,-0.352 -0.784,-0.784 0,-0.432 0.351,-0.784 0.784,-0.784 H 8.34 V 8.731 H 7.849 C 7.417,8.731 7.065,8.38 7.065,7.947 7.065,7.515 7.416,7.163 7.849,7.163 H 8.34 V 6.77 c 0,-0.434 0.351,-0.785 0.784,-0.785 h 1.374 c 0.433,0 0.785,0.351 0.785,0.785 v 0.393 h 0.49 c 0.433,0 0.784,0.352 0.784,0.784 0,0.433 -0.351,0.784 -0.784,0.784 h -0.49 v 0.395 h 0.49 c 0.433,0 0.784,0.351 0.784,0.784 0,0.432 -0.351,0.784 -0.784,0.784 h -0.49 v 0.884 h 1.892 c 0.425,0 0.781,0.29 0.866,0.706 0.084,0.416 -0.129,0.823 -0.52,0.989 l -13.878,5.493 -4.058,8.118 -3.992,-7.984 -13.934,-5.622 -0.011,-0.005 c -0.391,-0.166 -0.604,-0.573 -0.52,-0.989 0.085,-0.416 0.441,-0.706 0.865,-0.706 h 1.893 v -0.884 h -0.491 c -0.432,0 -0.784,-0.352 -0.784,-0.784 0,-0.432 0.352,-0.784 0.784,-0.784 h 0.491 V 8.731 h -0.491 c -0.432,0 -0.784,-0.351 -0.784,-0.784 0,-0.432 0.352,-0.784 0.784,-0.784 h 0.491 V 6.77 c 0,-0.434 0.351,-0.785 0.785,-0.785 h 1.373 c 0.434,0 0.785,0.351 0.785,0.785 v 0.393 h 0.491 c 0.432,0 0.784,0.352 0.784,0.784 0,0.433 -0.352,0.784 -0.784,0.784 h -0.491 v 0.395 h 0.491 c 0.432,0 0.784,0.351 0.784,0.784 0,0.432 -0.352,0.784 -0.784,0.784 h -0.491 v 0.884 h 8.34 V 5.89 l -13.51,-5.367 -0.011,-0.005 c -0.391,-0.166 -0.605,-0.573 -0.52,-0.989 0.085,-0.416 0.441,-0.707 0.865,-0.707 h 1.893 v -0.884 h -0.491 c -0.432,0 -0.784,-0.351 -0.784,-0.784 0,-0.432 0.352,-0.783 0.784,-0.783 h 0.491 v -0.395 h -0.491 c -0.432,0 -0.784,-0.351 -0.784,-0.784 0,-0.432 0.352,-0.784 0.784,-0.784 h 0.491 v -0.393 c 0,-0.434 0.351,-0.785 0.785,-0.785 h 1.373 c 0.434,0 0.785,0.351 0.785,0.785 v 0.393 h 0.491 c 0.432,0 0.784,0.352 0.784,0.784 0,0.432 -0.352,0.784 -0.784,0.784 h -0.491 v 0.395 h 0.491 c 0.432,0 0.784,0.351 0.784,0.783 0,0.433 -0.352,0.784 -0.784,0.784 h -0.491 v 0.884 h 8.34 v -5.789 l -3.24,-19.03 c 0.506,-0.443 1.021,-0.873 1.548,-1.291 l 1.191,6.997 4.451,-3.612 -4.895,-3.972 c 0.161,-0.122 0.322,-0.243 0.484,-0.363 l 4.877,3.957 6.233,-5.058 c 0.055,-0.044 0.12,-0.066 0.185,-0.066 0.017,0 0.032,0.008 0.048,0.011 l 0.757,-5.053 c 0.583,-0.189 1.172,-0.362 1.765,-0.526 L 0,-6.966 v 5.789 H 8.34 V -2.061 H 7.849 c -0.432,0 -0.784,-0.352 -0.784,-0.784 0,-0.433 0.351,-0.784 0.784,-0.784 H 8.34 V -4.024 H 7.849 c -0.432,0 -0.784,-0.351 -0.784,-0.784 0,-0.432 0.351,-0.784 0.784,-0.784 H 8.34 v -0.393 c 0,-0.434 0.351,-0.785 0.784,-0.785 h 1.374 c 0.433,0 0.785,0.352 0.785,0.785 v 0.393 h 0.49 c 0.433,0 0.784,0.352 0.784,0.784 0,0.433 -0.351,0.784 -0.784,0.784 h -0.49 v 0.395 h 0.49 c 0.433,0 0.784,0.351 0.784,0.784 0,0.432 -0.351,0.784 -0.784,0.784 h -0.49 v 0.884 h 1.892 c 0.425,0 0.781,0.29 0.866,0.706 0.085,0.416 -0.129,0.823 -0.52,0.989" style="fill:#3e4e59;fill-rule:nonzero" transform="matrix(1.3333333,0,0,-1.3333333,81.114933,106.09053)" clip-path="url(#clipPath24)"/>
  </g>
</svg>
